<svg width="20" height="20" viewBox="0 0 20 20" fill="none" xmlns="http://www.w3.org/2000/svg">
<path d="M10 6.64062C11.8338 6.64062 13.3203 5.15407 13.3203 3.32031C13.3203 1.48655 11.8338 0 10 0C8.16624 0 6.67969 1.48655 6.67969 3.32031C6.67969 5.15407 8.16624 6.64062 10 6.64062Z" fill="#4285F4"/>
<path d="M12.4398 7.09043C11.7368 7.54695 10.8989 7.8125 10 7.8125C9.10113 7.8125 8.2632 7.54695 7.56019 7.09043C6.78304 7.38742 6.0625 7.82559 5.43597 8.38793L10 10.0995L14.564 8.38793C13.9375 7.82559 13.217 7.38738 12.4398 7.09043Z" fill="#4285F4"/>
<path d="M17.0312 12.1094H16.6406C16.317 12.1094 16.0547 12.3717 16.0547 12.6953V14.2578C16.0547 14.5814 16.317 14.8438 16.6406 14.8438H17.0312C17.7863 14.8438 18.3984 14.2316 18.3984 13.4766C18.3984 12.7215 17.7863 12.1094 17.0312 12.1094Z" fill="#4285F4"/>
<path d="M3.41625 9.15141C3.25828 9.2609 3.16406 9.44082 3.16406 9.63301V10.9375H3.35938C4.32863 10.9375 5.11719 11.7261 5.11719 12.6953V14.2578C5.11719 15.2271 4.32863 16.0156 3.35938 16.0156H3.16406V17.2502C3.16406 17.4945 3.31559 17.7131 3.54426 17.7988L9.41406 20V11.1313L3.95574 9.08438C3.77578 9.01684 3.57418 9.04188 3.41625 9.15141Z" fill="#4285F4"/>
<path d="M14.8828 14.2578V12.6953C14.8828 11.7261 15.6714 10.9375 16.6406 10.9375H16.8359V9.63301C16.8359 9.44082 16.7417 9.2609 16.5838 9.15141C16.4258 9.04188 16.2241 9.01684 16.0443 9.08438L10.5859 11.1313V20L16.4557 17.7988C16.6844 17.7131 16.8359 17.4945 16.8359 17.2502V16.0156H16.6406C15.6714 16.0156 14.8828 15.2271 14.8828 14.2578Z" fill="#4285F4"/>
<path d="M3.94531 14.2578V12.6953C3.94531 12.3717 3.68297 12.1094 3.35938 12.1094H2.96875C2.21367 12.1094 1.60156 12.7215 1.60156 13.4766C1.60156 14.2316 2.21367 14.8438 2.96875 14.8438H3.35938C3.68297 14.8438 3.94531 14.5814 3.94531 14.2578Z" fill="#4285F4"/>
</svg>
